PathFileType	4	(X/Y/Z)	OpenSim_Sub01_EMGStiffKnee_Magnet.trc
DataRate	CameraRate	NumFrames	NumMarkers	Units	OrigDataRate	OrigDataStartFrame	OrigNumFrames
100	100	27	8	m	100	1	5567
Frame#	Time	torso_imu_offset_imu	pelvis_imu_offset_imu	tibia_r_imu_offset_imu	femur_r_imu_offset_imu	tibia_l_imu_offset_imu	femur_l_imu_offset_imu	toes_r_imu_offset_imu	toes_l_imu_offset_imu
				X1	Y1	Z1	X2	Y2	Z2	X3	Y3	Z3	X4	Y4	Z4	X5	Y5	Z5	X6	Y6	Z6	X7	Y7	Z7	X8		Y8	Z8	

1	0	-0.93691107	-0.10043162	0.07521970	-0.75478618	0.10423409	-0.56770742	-0.56148893	-0.59090896	-0.12583850	-0.65878215	-0.50988678	-0.01646082	-0.59087134	0.56967057	0.13271469	-0.46348059	0.06533210	0.30103721	-0.70290806	-0.12054630	-0.35034663	-0.71094226	-0.17311779	-0.34984651
2	0.01000000	-0.93806185	-0.09828872	0.07520349	-0.75396091	0.10108257	-0.56910018	-0.56291499	-0.59276509	-0.12504790	-0.65572186	-0.51105686	-0.01534649	-0.59057820	0.56522365	0.13078456	-0.46464111	0.06742659	0.29557306	-0.70467489	-0.12171470	-0.35034101	-0.70897318	-0.17604438	-0.34655096
3	0.02000000	-0.93796427	-0.09628541	0.07417759	-0.75259197	0.09928805	-0.56902819	-0.56403789	-0.59259834	-0.12522419	-0.65405612	-0.51283437	-0.01520009	-0.58793243	0.56421237	0.13038491	-0.46562838	0.06782414	0.29433995	-0.70584641	-0.12132004	-0.34940917	-0.70827756	-0.17513915	-0.34444714
4	0.03000000	-0.93684745	-0.09515440	0.07226372	-0.75150341	0.09932052	-0.56764035	-0.56422832	-0.59062621	-0.12565129	-0.65410116	-0.51468250	-0.01553685	-0.58382938	0.56661724	0.13141844	-0.46639180	0.06658294	0.29722793	-0.70580024	-0.11945039	-0.34817376	-0.70862845	-0.17148862	-0.34429705
5	0.04000000	-0.93629490	-0.09529768	0.07040006	-0.75124836	0.10019419	-0.56690827	-0.56363051	-0.58873636	-0.12481658	-0.65456923	-0.51595139	-0.01471099	-0.58088853	0.56868719	0.13237199	-0.46741252	0.06535581	0.30142129	-0.70526882	-0.11781683	-0.34825959	-0.70869556	-0.16971889	-0.34564767
6	0.05000000	-0.93734960	-0.09678316	0.06926802	-0.75204259	0.10109414	-0.56795204	-0.56254131	-0.58824551	-0.12202989	-0.65456271	-0.51625532	-0.01209201	-0.58079582	0.56803189	0.13233403	-0.46881212	0.06522679	0.30474152	-0.70491039	-0.11754077	-0.35053175	-0.70767157	-0.17260016	-0.34782261
7	0.06000000	-0.93934477	-0.09871133	0.06872364	-0.75312000	0.10182455	-0.56922219	-0.56165178	-0.58864626	-0.11910585	-0.65446586	-0.51600209	-0.01015490	-0.58233142	0.56658972	0.13228898	-0.46960313	0.06546796	0.30711038	-0.70505910	-0.11786739	-0.35352116	-0.70638747	-0.17711718	-0.34957463
8	0.07000000	-0.94131151	-0.10003865	0.06848244	-0.75356580	0.10233187	-0.56883915	-0.56167699	-0.58911908	-0.11818007	-0.65486300	-0.51569689	-0.01171348	-0.58381685	0.56689347	0.13343793	-0.46872910	0.06511302	0.30881852	-0.70593917	-0.11777616	-0.35540735	-0.70593336	-0.17938602	-0.34962961
9	0.08000000	-0.94249034	-0.10024261	0.06844097	-0.75295571	0.10297958	-0.56736903	-0.56260048	-0.58922055	-0.11926114	-0.65578516	-0.51510717	-0.01605974	-0.58474967	0.56839501	0.13497919	-0.46716989	0.06464082	0.30986595	-0.70702687	-0.11746143	-0.35556978	-0.70674359	-0.17852884	-0.34789041
10	0.09000000	-0.94228331	-0.09920200	0.06863502	-0.75124338	0.10445166	-0.56725961	-0.56384271	-0.58879694	-0.12072078	-0.65683762	-0.51343295	-0.01977558	-0.58553258	0.56817559	0.13457038	-0.46747174	0.06564194	0.31002912	-0.70722306	-0.11805226	-0.35431173	-0.70874746	-0.17598189	-0.34516601
11	0.10000000	-0.94057715	-0.09716737	0.06893920	-0.74880839	0.10683748	-0.56969259	-0.56492424	-0.58786409	-0.12150691	-0.65773951	-0.51049311	-0.02060775	-0.58642608	0.56470198	0.13127782	-0.47076379	0.06873902	0.30928444	-0.70590119	-0.12000141	-0.35218501	-0.71145405	-0.17323666	-0.34239342
12	0.11000000	-0.93868640	-0.09546309	0.06873860	-0.74726705	0.10843508	-0.57194358	-0.56570615	-0.58691962	-0.12240468	-0.65858087	-0.50798878	-0.01997162	-0.58719886	0.56073895	0.12847138	-0.47384444	0.07159356	0.30821961	-0.70388310	-0.12168072	-0.35040921	-0.71316234	-0.17177177	-0.34082068
13	0.12000000	-0.93810235	-0.09548704	0.06739937	-0.74830569	0.10738025	-0.57082994	-0.56611717	-0.58651064	-0.12442017	-0.65950299	-0.50782538	-0.01983102	-0.58755112	0.55963314	0.12997999	-0.47299442	0.07151075	0.30750865	-0.70221714	-0.12123272	-0.35022575	-0.71210468	-0.17292620	-0.34165042
14	0.13000000	-0.93901123	-0.09676659	0.06535881	-0.75123736	0.10433630	-0.56711744	-0.56615644	-0.58659185	-0.12678312	-0.66038761	-0.50975773	-0.02020831	-0.58751831	0.56154786	0.13459589	-0.46872909	0.06865658	0.30742584	-0.70133403	-0.11912560	-0.35135484	-0.70886354	-0.17598438	-0.34454467
15	0.14000000	-0.94059467	-0.09738967	0.06387853	-0.75354881	0.10191162	-0.56461010	-0.56587729	-0.58666207	-0.12735655	-0.66091683	-0.51188549	-0.01963193	-0.58739395	0.56419625	0.13723571	-0.46482267	0.06539878	0.30793756	-0.70118908	-0.11761722	-0.35234596	-0.70583006	-0.17864958	-0.34797970
16	0.15000000	-0.94205364	-0.09612753	0.06389061	-0.75354847	0.10189091	-0.56552398	-0.56529069	-0.58645945	-0.12500293	-0.66094484	-0.51273800	-0.01742617	-0.58740407	0.56581680	0.13491599	-0.46386584	0.06356982	0.30870630	-0.70169243	-0.11813141	-0.35212617	-0.70478869	-0.17916364	-0.35064960
17	0.16000000	-0.94272341	-0.09389193	0.06528500	-0.75212601	0.10346268	-0.56712429	-0.56427765	-0.58646808	-0.12165885	-0.66085250	-0.51224792	-0.01539438	-0.58755443	0.56639628	0.13118923	-0.46468338	0.06324329	0.30851519	-0.70265647	-0.11947705	-0.35083397	-0.70558285	-0.17748943	-0.35198630
18	0.17000000	-0.94205230	-0.09195003	0.06770318	-0.75063281	0.10535073	-0.56601490	-0.56274930	-0.58724682	-0.11970635	-0.66107399	-0.51064275	-0.01563790	-0.58779878	0.56625999	0.13051728	-0.46550724	0.06412559	0.30614008	-0.70386394	-0.12007989	-0.34885361	-0.70766161	-0.17397198	-0.35163444
19	0.18000000	-0.94080865	-0.09096577	0.06995141	-0.75018887	0.10650705	-0.56259947	-0.56142667	-0.58841014	-0.11968816	-0.66138393	-0.50867934	-0.01785835	-0.58792244	0.56596274	0.13288726	-0.46611716	0.06529455	0.30268037	-0.70492479	-0.11986723	-0.34689557	-0.70994307	-0.16991278	-0.35037988
20	0.19000000	-0.94077635	-0.09113858	0.07019385	-0.75173530	0.10605988	-0.56020585	-0.56165374	-0.58884596	-0.12073118	-0.66104963	-0.50752169	-0.01991063	-0.58758119	0.56623565	0.13484268	-0.46748381	0.06534472	0.30102326	-0.70531615	-0.11992189	-0.34592112	-0.71093722	-0.16734913	-0.34988645
21	0.20000000	-0.94294132	-0.09247055	0.06763702	-0.75524304	0.10388966	-0.56102184	-0.56404345	-0.58797708	-0.12200455	-0.65981661	-0.50789437	-0.02034552	-0.58665387	0.56738808	0.13417242	-0.46989389	0.06359082	0.30290410	-0.70474551	-0.12084850	-0.34645244	-0.70994288	-0.16768041	-0.35100344
22	0.21000000	-0.94584070	-0.09441290	0.06463387	-0.75781395	0.10209847	-0.56362422	-0.56698900	-0.58687132	-0.12291114	-0.65889023	-0.50918514	-0.01992267	-0.58569202	0.56846277	0.13262907	-0.47151073	0.06152461	0.30649903	-0.70361507	-0.12174258	-0.34768798	-0.70863415	-0.17035418	-0.35209286
23	0.22000000	-0.94764281	-0.09634094	0.06392412	-0.75631263	0.10300756	-0.56599707	-0.56858140	-0.58681588	-0.12295860	-0.65959819	-0.51055582	-0.01974294	-0.58532311	0.56835160	0.13254037	-0.47029811	0.06093273	0.30941414	-0.70244299	-0.12151259	-0.34864375	-0.70895996	-0.17439558	-0.35122189
24	0.23000000	-0.94777116	-0.09801828	0.06533080	-0.75199057	0.10607141	-0.56724606	-0.56853099	-0.58782998	-0.12257568	-0.66106005	-0.51148614	-0.01990202	-0.58545043	0.56719310	0.13387462	-0.46710842	0.06199131	0.31057224	-0.70156128	-0.12044316	-0.34926842	-0.71041042	-0.17790886	-0.34892670
25	0.24000000	-0.94661555	-0.09950724	0.06643236	-0.74947483	0.10853838	-0.56734033	-0.56779447	-0.58895693	-0.12289970	-0.66069661	-0.51170067	-0.01972205	-0.58542007	0.56608529	0.13478434	-0.46501679	0.06363686	0.30991008	-0.70115840	-0.11987786	-0.35022828	-0.71058386	-0.17829053	-0.34764342
26	0.25000000	-0.94470100	-0.10059169	0.06570269	-0.75151105	0.10853361	-0.56645294	-0.56706561	-0.58943763	-0.12436567	-0.65723700	-0.51108635	-0.01881147	-0.58496703	0.56581546	0.13411208	-0.46598774	0.06494432	0.30781481	-0.70122172	-0.12059633	-0.35172340	-0.70834031	-0.17452853	-0.34887856
27	0.26000000	-0.94288035	-0.10020539	0.06444800	-0.75499637	0.10695611	-0.56529672	-0.56616176	-0.58917475	-0.12526780	-0.65342788	-0.50999400	-0.01768871	-0.58502445	0.56617446	0.13288943	-0.46851575	0.06549471	0.30593453	-0.70115182	-0.12162159	-0.35251367	-0.70643342	-0.17039364	-0.35123123
